grf
version=1
nRows=7
nColumns=37
inDegrees=no
endheader
time	ground_force_1_vx	ground_force_1_vy	ground_force_1_vz	ground_force_1_px	ground_force_1_py	ground_force_1_pz	ground_moment_1_mx	ground_moment_1_my	ground_moment_1_mz	ground_force_2_vx	ground_force_2_vy	ground_force_2_vz	ground_force_2_px	ground_force_2_py	ground_force_2_pz	ground_moment_2_mx	ground_moment_2_my	ground_moment_2_mz	ground_force_3_vx	ground_force_3_vy	ground_force_3_vz	ground_force_3_px	ground_force_3_py	ground_force_3_pz	ground_moment_3_mx	ground_moment_3_my	ground_moment_3_mz	ground_force_4_vx	ground_force_4_vy	ground_force_4_vz	ground_force_4_px	ground_force_4_py	ground_force_4_pz	ground_moment_4_mx	ground_moment_4_my	ground_moment_4_mz
      0.00000000	      0.00000000	     -0.00000000	      0.00000000	      0.00000000	      0.00000000	      0.00000000	      0.00000000	      0.00000000	      0.00000000	    -15.55893230	     34.34655762	   -525.59747314	   -288.37641918	  -1050.88746392	      0.00000000	      0.00000000	      0.00000000	   2277.42726969	      8.38682966	    -29.51504208	   -463.61169434	   -349.10742437	   -759.57031852	      0.00000000	      0.00000000	     -0.00000000	   -579.01077613	      0.00000000	     -0.00000000	      0.00000000	      0.00000000	      0.00000000	      0.00000000	      0.00000000	      0.00000000	      0.00000000
      0.01000000	      0.00000000	     -0.00000000	      0.00000000	      0.00000000	      0.00000000	      0.00000000	      0.00000000	      0.00000000	      0.00000000	    -15.29540348	     33.72252655	   -522.19317627	   -288.39490192	  -1049.57170865	      0.00000000	     -0.00000000	      0.00000000	   2269.63597828	      8.45176439	    -29.45939329	   -466.05346680	   -348.35290699	   -758.97614660	      0.00000000	      0.00000000	     -0.00000000	   -671.82502834	      0.00000000	     -0.00000000	      0.00000000	      0.00000000	      0.00000000	      0.00000000	      0.00000000	      0.00000000	      0.00000000
      0.02000000	      0.00000000	     -0.00000000	      0.00000000	      0.00000000	      0.00000000	      0.00000000	      0.00000000	      0.00000000	      0.00000000	    -15.43341827	     33.27252960	   -522.22985840	   -288.47337198	  -1050.03060770	      0.00000000	      0.00000000	      0.00000000	   2206.09106532	      9.08978109	    -29.53904422	   -468.21234131	   -348.29057479	   -758.17994645	      0.00000000	      0.00000000	     -0.00000000	   -739.16827987	      0.00000000	     -0.00000000	      0.00000000	      0.00000000	      0.00000000	      0.00000000	      0.00000000	      0.00000000	      0.00000000
      0.03000000	      0.00000000	     -0.00000000	      0.00000000	      0.00000000	      0.00000000	      0.00000000	      0.00000000	      0.00000000	      0.00000000	    -15.28601265	     32.82714844	   -519.66571045	   -288.51297955	  -1049.58441571	      0.00000000	      0.00000000	      0.00000000	   2074.17700669	      9.47753453	    -29.99752509	   -470.33581543	   -348.10471445	   -758.22229063	      0.00000000	      0.00000000	     -0.00000000	   -821.94366848	      0.00000000	     -0.00000000	      0.00000000	      0.00000000	      0.00000000	      0.00000000	      0.00000000	      0.00000000	      0.00000000
      0.04000000	      0.00000000	     -0.00000000	      0.00000000	      0.00000000	      0.00000000	      0.00000000	      0.00000000	      0.00000000	      0.00000000	    -15.16231823	     31.88128471	   -520.47863770	   -288.11238153	  -1050.20679513	      0.00000000	      0.00000000	      0.00000000	   2223.85351688	      9.39644646	    -30.09283148	   -471.92755127	   -348.16294134	   -758.26473814	      0.00000000	      0.00000000	     -0.00000000	   -787.22850722	      0.00000000	     -0.00000000	      0.00000000	      0.00000000	      0.00000000	      0.00000000	      0.00000000	      0.00000000	      0.00000000
      0.05000000	      0.00000000	     -0.00000000	      0.00000000	      0.00000000	      0.00000000	      0.00000000	      0.00000000	      0.00000000	      0.00000000	    -15.31654739	     31.85030174	   -519.52770996	   -288.29701800	  -1049.57111902	      0.00000000	      0.00000000	      0.00000000	   2204.36719993	      9.54901052	    -29.89085662	   -473.37612915	   -348.43513387	   -758.00738095	      0.00000000	      0.00000000	     -0.00000000	   -713.58131355	      0.00000000	     -0.00000000	      0.00000000	      0.00000000	      0.00000000	      0.00000000	      0.00000000	      0.00000000	      0.00000000
      0.06000000	      0.00000000	     -0.00000000	      0.00000000	      0.00000000	      0.00000000	      0.00000000	      0.00000000	      0.00000000	      0.00000000	    -15.37764549	     32.08417511	   -521.41497803	   -288.42104620	  -1049.69410571	      0.00000000	      0.00000000	      0.00000000	   2208.48101337	      9.85930468	    -29.84037485	   -473.72308350	   -347.84576154	   -758.65186591	      0.00000000	      0.00000000	     -0.00000000	   -799.48473983	      0.00000000	     -0.00000000	      0.00000000	      0.00000000	      0.00000000	      0.00000000	      0.00000000	      0.00000000	      0.00000000
